HIERARCHY
ROOT Pelvis
{
	OFFSET 0.000000 0.000000 0.000000
	CHANNELS 6 Xposition Yposition Zposition Xrotation Yrotation Zrotation
	JOINT LeftUpLeg_virtual
	{
		OFFSET 0.000000 0.000000 0.000000
		CHANNELS 3 Xrotation Yrotation Zrotation
		JOINT LeftUpLeg
		{
			OFFSET 8.479700 -4.795502 -0.379100
			CHANNELS 3 Xrotation Yrotation Zrotation
			JOINT LeftLeg
			{
				OFFSET 0.024144 -32.555107 0.112900
				CHANNELS 3 Xrotation Yrotation Zrotation
				JOINT LeftFoot
				{
					OFFSET -0.024144 -32.638630 -3.012600
					CHANNELS 3 Xrotation Yrotation Zrotation
					JOINT LeftToeBase
					{
						OFFSET 0.970200 -13.225400 11.864200
						CHANNELS 3 Xrotation Yrotation Zrotation
						End Site
						{
							OFFSET 0 0 0
						}
					}
				}
			}
		}
	}
	JOINT RightUpLeg_virtual
	{
		OFFSET 0.000000 0.000000 0.000000
		CHANNELS 3 Xrotation Yrotation Zrotation
		JOINT RightUpLeg
		{
			OFFSET -8.479700 -4.795502 -0.379100
			CHANNELS 3 Xrotation Yrotation Zrotation
			JOINT RightLeg
			{
				OFFSET -0.023144 -32.555092 0.112900
				CHANNELS 3 Xrotation Yrotation Zrotation
				JOINT RightFoot
				{
					OFFSET 0.023144 -32.638641 -3.012700
					CHANNELS 3 Xrotation Yrotation Zrotation
					JOINT RightToeBase
					{
						OFFSET -0.970200 -13.225400 11.864200
						CHANNELS 3 Xrotation Yrotation Zrotation
						End Site
						{
							OFFSET 0 0 0
						}
					}
				}
			}
		}
	}
	JOINT Hips_virtual
	{
		OFFSET 0.000000 0.000000 0.000000
		CHANNELS 3 Xrotation Yrotation Zrotation
		JOINT Hips
		{
			OFFSET -0.000000 -0.000000 -0.000000
			CHANNELS 3 Xrotation Yrotation Zrotation
			JOINT Spine
			{
				OFFSET 0.000000 7.722000 1.166200
				CHANNELS 3 Xrotation Yrotation Zrotation
				JOINT Spine1
				{
					OFFSET 0.000000 12.024101 0.248800
					CHANNELS 3 Xrotation Yrotation Zrotation
					JOINT Spine2
					{
						OFFSET 0.000000 11.502998 -0.491200
						CHANNELS 3 Xrotation Yrotation Zrotation
						JOINT Neck_virtual
						{
							OFFSET 0.000000 0.000000 0.000000
							CHANNELS 3 Xrotation Yrotation Zrotation
							JOINT Neck
							{
								OFFSET 0.000000 18.430702 -3.123100
								CHANNELS 3 Xrotation Yrotation Zrotation
								JOINT Head
								{
									OFFSET 0.000000 9.051102 1.034000
									CHANNELS 3 Xrotation Yrotation Zrotation
									End Site
									{
										OFFSET 0 0 0
									}
								}
							}
						}
						JOINT LeftShoulder_virtual
						{
							OFFSET 0.000000 0.000000 0.000000
							CHANNELS 3 Xrotation Yrotation Zrotation
							JOINT LeftShoulder
							{
								OFFSET 6.197800 13.665199 -4.064700
								CHANNELS 3 Xrotation Yrotation Zrotation
								JOINT LeftArm
								{
									OFFSET 7.778100 -0.187103 -1.709300
									CHANNELS 3 Xrotation Yrotation Zrotation
									JOINT LeftForeArm
									{
										OFFSET 22.049376 0.000000 0.000000
										CHANNELS 3 Xrotation Yrotation Zrotation
										JOINT LeftHand
										{
											OFFSET 23.009392 0.000000 0.000000
											CHANNELS 3 Xrotation Yrotation Zrotation
											End Site
											{
												OFFSET 0 0 0
											}
										}
									}
								}
							}
						}
						JOINT RightShoulder_virtual
						{
							OFFSET 0.000000 0.000000 0.000000
							CHANNELS 3 Xrotation Yrotation Zrotation
							JOINT RightShoulder
							{
								OFFSET -6.197800 13.665199 -4.064700
								CHANNELS 3 Xrotation Yrotation Zrotation
								JOINT RightArm
								{
									OFFSET -7.778100 -0.187103 -1.709300
									CHANNELS 3 Xrotation Yrotation Zrotation
									JOINT RightForeArm
									{
										OFFSET -22.049376 0.000000 0.000000
										CHANNELS 3 Xrotation Yrotation Zrotation
										JOINT RightHand
										{
											OFFSET -23.009392 0.000000 0.000000
											CHANNELS 3 Xrotation Yrotation Zrotation
											End Site
											{
												OFFSET 0 0 0
											}
										}
									}
								}
							}
						}
					}
				}
			}
		}
	}
}
MOTION
Frames: 4
Frame Time: 0.03333333
3.862720 79.307297 7.599234 0.000000 0.000000 0.000000 -31.891973 -38.316876 -21.658602 1.516500 12.646885 2.347633 32.317102 -1.700830 -4.440583 -10.606836 8.634110 7.733856 0.000000 0.000000 0.000000 -31.891973 -38.316876 -21.658602 13.804570 -8.246919 -8.754132 27.891180 4.879126 -5.932362 -15.494059 -11.809033 6.965529 0.000000 0.000000 0.000000 -31.891973 -38.316876 -21.658602 0.000003 -0.000001 -0.000001 11.190395 -4.830507 -0.697354 3.545657 -2.400645 -0.151373 0.000000 0.000000 0.000000 3.557022 -2.388385 -0.108336 1.348021 0.319774 -0.743108 0.000000 0.000000 0.000000 3.557022 -2.388385 -0.108336 0.576507 -16.606948 -10.307152 -20.089166 4.591488 -37.031223 0.000024 -67.698888 0.000006 0.000000 0.000000 0.000000 3.557022 -2.388385 -0.108336 0.014986 14.189131 15.480067 -11.472638 -5.400281 60.640366 -0.000005 39.601027 0.000005 0.000000 0.000000 0.000000 
4.204292 79.299500 7.875835 0.000000 0.000000 0.000000 -32.408708 -39.338249 -22.468027 1.597490 12.885863 2.221107 32.282339 -2.109543 -4.843571 -10.825999 9.912146 8.845409 0.000000 0.000000 0.000000 -32.408708 -39.338249 -22.468027 13.259410 -8.051693 -9.110294 28.064472 4.591827 -6.067578 -14.683122 -12.064178 7.613264 0.000000 0.000000 0.000000 -32.408708 -39.338249 -22.468027 -0.000001 0.000002 0.000000 11.189295 -4.827162 -0.710292 3.545658 -2.400646 -0.151373 0.000000 0.000000 0.000000 3.557022 -2.388378 -0.108336 1.314812 0.322527 -0.750640 0.000000 0.000000 0.000000 3.557022 -2.388378 -0.108336 0.579612 -16.606977 -10.288917 -19.994001 4.524803 -36.978634 0.000073 -67.695193 0.000067 0.000000 0.000000 0.000000 3.557022 -2.388378 -0.108336 0.007980 14.220985 15.529856 -11.429878 -5.404806 60.569974 0.000003 39.667205 -0.000011 0.000000 0.000000 0.000000 
4.533632 79.292984 8.149677 0.000000 0.000000 0.000000 -32.952162 -40.353232 -23.301387 1.732489 13.116942 2.023350 32.176652 -2.547410 -5.169345 -11.306465 11.232284 10.063602 0.000000 0.000000 0.000000 -32.952162 -40.353232 -23.301387 12.664576 -7.981140 -9.502585 28.277740 4.748272 -6.082334 -13.879184 -12.918037 7.951273 0.000000 0.000000 0.000000 -32.952162 -40.353232 -23.301387 -0.000003 -0.000001 -0.000000 11.188194 -4.823909 -0.723345 3.545658 -2.400649 -0.151372 0.000000 0.000000 0.000000 3.557023 -2.388384 -0.108336 1.278866 0.332801 -0.774660 0.000000 0.000000 0.000000 3.557023 -2.388384 -0.108336 0.580764 -16.582634 -10.279782 -19.895784 4.421333 -36.921797 0.000028 -67.679443 0.000032 0.000000 0.000000 0.000000 3.557023 -2.388384 -0.108336 0.005023 14.258431 15.543484 -11.398955 -5.416200 60.537503 -0.000026 39.702954 0.000023 0.000000 0.000000 0.000000 
4.842400 79.289772 8.423738 0.000000 0.000000 0.000000 -33.523327 -41.360795 -24.160245 1.904772 13.306605 1.954678 31.951178 -3.011599 -5.532708 -11.593357 12.640354 10.631785 0.000000 0.000000 0.000000 -33.523327 -41.360795 -24.160245 12.022727 -7.970056 -9.825663 28.483581 4.688165 -6.043968 -13.029382 -14.375383 8.016195 0.000000 0.000000 0.000000 -33.523327 -41.360795 -24.160245 0.000000 0.000002 0.000000 11.187142 -4.821115 -0.735977 3.545658 -2.400649 -0.151373 0.000000 0.000000 0.000000 3.557021 -2.388377 -0.108336 1.244414 0.349210 -0.810673 0.000000 0.000000 0.000000 3.557021 -2.388377 -0.108336 0.581073 -16.531945 -10.273113 -19.827090 4.304719 -36.893858 0.000024 -67.649137 0.000041 0.000000 0.000000 0.000000 3.557021 -2.388377 -0.108336 0.004874 14.295180 15.534099 -11.379685 -5.432802 60.532073 -0.000002 39.716741 0.000002 0.000000 0.000000 0.000000 
